<?xml version="1.0" encoding="UTF-8"?>
<!DOCTYPE svg PUBLIC "-//W3C//DTD SVG 1.1//EN" "http://www.w3.org/Graphics/SVG/1.1/DTD/svg11.dtd">
<svg xmlns="http://www.w3.org/2000/svg" version="1.1" width="752px" height="752px" style="shape-rendering:geometricPrecision; text-rendering:geometricPrecision; image-rendering:optimizeQuality; fill-rule:evenodd; clip-rule:evenodd" xmlns:xlink="http://www.w3.org/1999/xlink">
<g><path style="opacity:0.95" fill="#ffffff" d="M 176.5,157.5 C 296.167,157.333 415.834,157.5 535.5,158C 553.957,160.129 566.123,169.963 572,187.5C 573.596,205.122 573.93,222.789 573,240.5C 569.423,247.553 563.923,249.386 556.5,246C 554.959,244.421 553.792,242.587 553,240.5C 552.957,223.767 552.29,207.1 551,190.5C 548.152,184.16 543.318,180.326 536.5,179C 415.833,178.333 295.167,178.333 174.5,179C 167.819,181.013 162.986,185.18 160,191.5C 158.345,292.798 158.011,394.131 159,495.5C 161.872,508.701 170.039,514.534 183.5,513C 239.194,456.972 295.194,401.306 351.5,346C 354.964,345.183 358.298,345.517 361.5,347C 376,361.5 390.5,376 405,390.5C 422.833,372.667 440.667,354.833 458.5,337C 467.411,333.787 472.745,336.787 474.5,346C 474.385,348.732 473.552,351.232 472,353.5C 454.653,370.681 437.486,388.014 420.5,405.5C 437.819,423.319 455.319,440.986 473,458.5C 476.167,471.333 471.333,476.167 458.5,473C 424.333,438.833 390.167,404.667 356,370.5C 302.167,424.333 248.333,478.167 194.5,532C 176.07,537.269 160.236,533.102 147,519.5C 142.995,514.489 140.328,508.822 139,502.5C 138.333,398.167 138.333,293.833 139,189.5C 144.354,170.303 156.854,159.637 176.5,157.5 Z"/></g>
<g><path style="opacity:0.944" fill="#ffffff" d="M 316.5,217.5 C 346.638,214.839 366.138,227.839 375,256.5C 378.575,287.571 365.408,307.404 335.5,316C 304.48,318.921 284.98,305.421 277,275.5C 274.626,245.403 287.793,226.07 316.5,217.5 Z M 323.5,237.5 C 342.665,238.166 353.331,247.999 355.5,267C 353.776,284.558 344.109,294.391 326.5,296.5C 305.115,293.285 295.615,280.952 298,259.5C 302.403,247.254 310.903,239.921 323.5,237.5 Z"/></g>
<g><path style="opacity:0.956" fill="#ffffff" d="M 549.5,266.5 C 553.753,265.986 557.587,266.986 561,269.5C 578,303.5 595,337.5 612,371.5C 612.817,374.964 612.483,378.298 611,381.5C 605.947,384.851 600.78,388.018 595.5,391C 585.665,400 581.665,411.167 583.5,424.5C 588.628,424.112 593.628,424.612 598.5,426C 602.259,429.743 603.426,434.243 602,439.5C 600.833,441.333 599.333,442.833 597.5,444C 592.915,445.225 588.248,445.725 583.5,445.5C 583.667,489.168 583.5,532.835 583,576.5C 580.59,586.245 574.423,591.745 564.5,593C 556.833,593.667 549.167,593.667 541.5,593C 530.667,591.5 524.5,585.333 523,574.5C 522.5,560.837 522.333,547.171 522.5,533.5C 429.166,533.667 335.833,533.5 242.5,533C 234.5,526.667 234.5,520.333 242.5,514C 335.833,513.5 429.166,513.333 522.5,513.5C 522.5,490.833 522.5,468.167 522.5,445.5C 517.752,445.725 513.085,445.225 508.5,444C 502.285,438.292 501.952,432.292 507.5,426C 512.372,424.612 517.372,424.112 522.5,424.5C 524.735,410.479 520.402,398.979 509.5,390C 504.518,387.347 499.685,384.514 495,381.5C 493.517,378.298 493.183,374.964 494,371.5C 510.667,338.167 527.333,304.833 544,271.5C 545.73,269.598 547.563,267.931 549.5,266.5 Z M 541.5,322.5 C 542.331,337.661 542.831,352.995 543,368.5C 545.73,375.053 550.563,377.22 557.5,375C 559.286,374.215 560.786,373.049 562,371.5C 563.289,355.233 563.956,338.9 564,322.5C 571.969,338.272 579.803,354.105 587.5,370C 578.932,376.24 572.099,384.074 567,393.5C 563.069,403.453 561.569,413.786 562.5,424.5C 556.167,424.5 549.833,424.5 543.5,424.5C 545.834,401.341 537.501,383.174 518.5,370C 526.314,354.206 533.981,338.373 541.5,322.5 Z M 543.5,445.5 C 549.833,445.5 556.167,445.5 562.5,445.5C 562.5,487.833 562.5,530.167 562.5,572.5C 556.167,572.5 549.833,572.5 543.5,572.5C 543.5,530.167 543.5,487.833 543.5,445.5 Z"/></g>
</svg>
