<?xml version="1.0" encoding="UTF-8"?>
<!DOCTYPE svg PUBLIC "-//W3C//DTD SVG 1.1//EN" "http://www.w3.org/Graphics/SVG/1.1/DTD/svg11.dtd">
<svg xmlns="http://www.w3.org/2000/svg" version="1.1" width="752px" height="752px" style="shape-rendering:geometricPrecision; text-rendering:geometricPrecision; image-rendering:optimizeQuality; fill-rule:evenodd; clip-rule:evenodd" xmlns:xlink="http://www.w3.org/1999/xlink">
<g><path style="opacity:0.825" fill="#ffffff" d="M 344.5,161.5 C 346.17,161.751 347.67,162.418 349,163.5C 349.667,170.5 349.667,177.5 349,184.5C 346.237,187.288 343.903,186.955 342,183.5C 341.333,177.167 341.333,170.833 342,164.5C 342.698,163.309 343.531,162.309 344.5,161.5 Z"/></g>
<g><path style="opacity:0.791" fill="#ffffff" d="M 291.5,183.5 C 297.359,186.846 302.526,191.18 307,196.5C 308.353,202.727 306.186,204.561 300.5,202C 296.667,198.167 292.833,194.333 289,190.5C 287.916,187.341 288.75,185.008 291.5,183.5 Z"/></g>
<g><path style="opacity:0.799" fill="#ffffff" d="M 398.5,183.5 C 402.148,184.5 403.314,186.834 402,190.5C 397.833,194.667 393.667,198.833 389.5,203C 383.609,203.362 382.109,200.862 385,195.5C 389.123,190.866 393.623,186.866 398.5,183.5 Z"/></g>
<g><path style="opacity:0.969" fill="#ffffff" d="M 341.5,200.5 C 370.627,201.459 384.794,216.459 384,245.5C 381.002,255.161 376.669,264.161 371,272.5C 370.501,277.155 370.334,281.821 370.5,286.5C 354.167,286.5 337.833,286.5 321.5,286.5C 321.75,281.42 321.25,276.42 320,271.5C 315.205,264.243 311.205,256.576 308,248.5C 304.615,222.254 315.781,206.254 341.5,200.5 Z"/></g>
<g><path style="opacity:0.823" fill="#ffffff" d="M 267.5,237.5 C 274.841,237.334 282.174,237.5 289.5,238C 291.22,241.086 290.553,243.419 287.5,245C 281.5,245.667 275.5,245.667 269.5,245C 266.378,243.245 265.712,240.745 267.5,237.5 Z"/></g>
<g><path style="opacity:0.832" fill="#ffffff" d="M 401.5,237.5 C 408.841,237.334 416.174,237.5 423.5,238C 425.22,241.086 424.553,243.419 421.5,245C 415.5,245.667 409.5,245.667 403.5,245C 400.489,243.132 399.822,240.632 401.5,237.5 Z"/></g>
<g><path style="opacity:0.972" fill="#ffffff" d="M 275.5,265.5 C 287.186,265.168 298.852,265.501 310.5,266.5C 315.196,273.47 316.696,281.136 315,289.5C 313.615,290.551 312.615,291.884 312,293.5C 311.333,300.5 311.333,307.5 312,314.5C 315.057,318.915 316.391,323.915 316,329.5C 317.251,332.381 319.417,334.214 322.5,335C 338.167,335.667 353.833,335.667 369.5,335C 371.286,334.215 372.786,333.049 374,331.5C 375.495,324.306 377.495,317.306 380,310.5C 380.667,305.833 380.667,301.167 380,296.5C 379.751,293.823 378.751,291.49 377,289.5C 376.333,283.833 376.333,278.167 377,272.5C 378.377,270.246 379.877,268.08 381.5,266C 400.83,265.5 420.164,265.333 439.5,265.5C 439.333,284.836 439.5,304.17 440,323.5C 440.374,324.416 440.874,325.25 441.5,326C 461.497,326.5 481.497,326.667 501.5,326.5C 501.5,405.5 501.5,484.5 501.5,563.5C 426.167,563.5 350.833,563.5 275.5,563.5C 275.5,464.167 275.5,364.833 275.5,265.5 Z M 300.5,352.5 C 359.17,352.167 417.837,352.5 476.5,353.5C 477.933,355.809 477.266,357.309 474.5,358C 416.833,358.667 359.167,358.667 301.5,358C 299.365,356.444 299.032,354.611 300.5,352.5 Z M 300.5,390.5 C 358.834,390.333 417.168,390.5 475.5,391C 478.167,392.667 478.167,394.333 475.5,396C 417.167,396.667 358.833,396.667 300.5,396C 299.248,394.172 299.248,392.339 300.5,390.5 Z M 301.5,428.5 C 359.501,428.333 417.501,428.5 475.5,429C 478.167,430.667 478.167,432.333 475.5,434C 417.167,434.667 358.833,434.667 300.5,434C 299.156,431.856 299.49,430.023 301.5,428.5 Z M 300.5,467.5 C 359.168,467.333 417.834,467.5 476.5,468C 478.013,470.454 477.346,472.121 474.5,473C 417.167,473.667 359.833,473.667 302.5,473C 299.541,471.954 298.874,470.121 300.5,467.5 Z M 300.5,505.5 C 358.834,505.333 417.168,505.5 475.5,506C 478.167,507.667 478.167,509.333 475.5,511C 417.5,511.667 359.5,511.667 301.5,511C 299.19,509.541 298.857,507.708 300.5,505.5 Z"/></g>
<g><path style="opacity:0.92" fill="#ffffff" d="M 445.5,270.5 C 462.915,286.412 479.915,302.912 496.5,320C 479.503,320.5 462.503,320.667 445.5,320.5C 445.5,303.833 445.5,287.167 445.5,270.5 Z"/></g>
<g><path style="opacity:0.926" fill="#ffffff" d="M 249.5,290.5 C 256.167,290.5 262.833,290.5 269.5,290.5C 269.333,382.834 269.5,475.167 270,567.5C 270.5,568 271,568.5 271.5,569C 339.499,569.5 407.499,569.667 475.5,569.5C 475.5,576.167 475.5,582.833 475.5,589.5C 400.167,589.5 324.833,589.5 249.5,589.5C 249.5,489.833 249.5,390.167 249.5,290.5 Z"/></g>
<g><path style="opacity:0.897" fill="#ffffff" d="M 319.5,292.5 C 337.17,292.333 354.836,292.5 372.5,293C 374.113,295.228 374.78,297.728 374.5,300.5C 355.5,300.5 336.5,300.5 317.5,300.5C 317.107,297.487 317.774,294.82 319.5,292.5 Z"/></g>
<g><path style="opacity:0.802" fill="#ffffff" d="M 317.5,306.5 C 336.5,306.5 355.5,306.5 374.5,306.5C 374.93,309.862 373.93,312.695 371.5,315C 354.5,315.667 337.5,315.667 320.5,315C 319.584,314.626 318.75,314.126 318,313.5C 317.503,311.19 317.337,308.857 317.5,306.5 Z"/></g>
<g><path style="opacity:0.941" fill="#ffffff" d="M 321.5,321.5 C 337.833,321.5 354.167,321.5 370.5,321.5C 370.78,324.272 370.113,326.772 368.5,329C 353.167,329.667 337.833,329.667 322.5,329C 321.565,326.619 321.232,324.119 321.5,321.5 Z"/></g>
</svg>
