<?xml version="1.0" encoding="UTF-8"?>
<!DOCTYPE svg PUBLIC "-//W3C//DTD SVG 1.1//EN" "http://www.w3.org/Graphics/SVG/1.1/DTD/svg11.dtd">
<svg xmlns="http://www.w3.org/2000/svg" version="1.1" width="512px" height="512px" style="shape-rendering:geometricPrecision; text-rendering:geometricPrecision; image-rendering:optimizeQuality; fill-rule:evenodd; clip-rule:evenodd" xmlns:xlink="http://www.w3.org/1999/xlink">
<g><path style="opacity:0.932" fill="#ffffff" d="M 257.5,7.5 C 266.162,6.66266 274.495,7.82933 282.5,11C 289.891,16.723 297.557,22.0564 305.5,27C 316.103,28.7468 326.77,30.0801 337.5,31C 347.04,33.8695 354.207,39.7028 359,48.5C 361.848,58.8948 364.848,69.2281 368,79.5C 374.613,86.1126 381.279,92.7792 388,99.5C 396.232,111.051 397.566,123.384 392,136.5C 388.394,143.379 385.061,150.379 382,157.5C 382.911,169.802 383.244,182.135 383,194.5C 379.58,206.085 372.413,214.418 361.5,219.5C 371.064,240.623 380.064,261.957 388.5,283.5C 387.902,289.268 384.735,291.934 379,291.5C 367.054,289.722 355.221,287.388 343.5,284.5C 336.431,294.961 329.598,305.627 323,316.5C 318.464,320.461 313.964,320.461 309.5,316.5C 301.225,298.284 293.225,279.95 285.5,261.5C 278.01,257.461 270.01,255.628 261.5,256C 259.238,256.642 257.071,257.475 255,258.5C 244,282.167 233,305.833 222,329.5C 217.333,333.5 212.667,333.5 208,329.5C 201.919,318.337 195.586,307.337 189,296.5C 176.904,298.989 164.737,301.323 152.5,303.5C 145.55,302.387 142.717,298.387 144,291.5C 155.107,268.287 165.94,244.953 176.5,221.5C 164.095,217.927 155.262,210.261 150,198.5C 148.985,194.235 148.485,189.902 148.5,185.5C 149.408,176.168 149.908,166.834 150,157.5C 146,148.833 142,140.167 138,131.5C 135.024,120.385 136.691,110.052 143,100.5C 150.054,93.4459 157.054,86.4459 164,79.5C 167.153,69.2232 170.153,58.8898 173,48.5C 177.793,39.7028 184.96,33.8695 194.5,31C 205.23,30.0801 215.897,28.7468 226.5,27C 234.443,22.0564 242.109,16.723 249.5,11C 252.309,9.9066 254.976,8.73993 257.5,7.5 Z M 265.5,23.5 C 268.997,24.1038 272.33,25.2705 275.5,27C 284.283,35.0567 294.283,41.0567 305.5,45C 313.815,45.8877 322.149,46.5544 330.5,47C 337.049,47.8839 341.549,51.3839 344,57.5C 346.224,68.0656 349.224,78.3989 353,88.5C 359,95.8333 365.667,102.5 373,108.5C 378.283,114.013 379.616,120.346 377,127.5C 372.171,136.157 368.171,145.157 365,154.5C 364.44,164.71 364.94,174.877 366.5,185C 366.743,191.847 364.077,197.18 358.5,201C 349.594,204.453 340.927,208.453 332.5,213C 324.796,220.033 318.63,228.2 314,237.5C 310.348,242.409 305.515,245.409 299.5,246.5C 288.551,242.906 277.384,240.239 266,238.5C 254.616,240.239 243.449,242.906 232.5,246.5C 229.839,245.668 227.172,244.834 224.5,244C 217.814,236.791 211.981,228.958 207,220.5C 204.5,218 202,215.5 199.5,213C 189.712,208.519 180.045,203.852 170.5,199C 168.57,196.742 167.07,194.242 166,191.5C 166.48,179.174 166.814,166.841 167,154.5C 163.223,144.277 158.889,134.277 154,124.5C 153.085,118.909 154.419,113.909 158,109.5C 165.333,103.5 172,96.8333 178,89.5C 182.567,79.2366 185.9,68.5699 188,57.5C 190.451,51.3839 194.951,47.8839 201.5,47C 212.338,46.8501 223.004,45.5168 233.5,43C 241.69,38.4061 249.357,33.0727 256.5,27C 259.459,25.3957 262.459,24.2291 265.5,23.5 Z M 255.5,72.5 C 293.801,70.3203 317.968,87.6536 328,124.5C 331.286,156.101 318.786,178.935 290.5,193C 253.663,204.505 226.163,193.338 208,159.5C 196.495,122.663 207.662,95.1628 241.5,77C 246.254,75.3583 250.921,73.8583 255.5,72.5 Z M 344.5,225.5 C 345.79,226.058 346.623,227.058 347,228.5C 352.976,242.766 359.143,256.933 365.5,271C 355.543,269.409 345.543,268.076 335.5,267C 333.714,267.785 332.214,268.951 331,270.5C 326.663,277.657 322.163,284.657 317.5,291.5C 313.068,282.035 308.735,272.535 304.5,263C 313.116,261.277 320.283,257.11 326,250.5C 331.224,241.348 337.391,233.015 344.5,225.5 Z M 191.5,229.5 C 196.804,236.086 201.638,243.086 206,250.5C 213.288,258.727 222.455,263.06 233.5,263.5C 227.274,277.62 220.774,291.62 214,305.5C 209.21,296.75 204.043,288.25 198.5,280C 196.782,279.654 195.115,279.154 193.5,278.5C 184.558,280.657 175.558,282.157 166.5,283C 175.52,265.461 183.853,247.628 191.5,229.5 Z"/></g>
<g><path style="opacity:0.933" fill="#ffffff" d="M 253.5,55.5 C 293.675,52.3256 322.509,68.6589 340,104.5C 351.875,138.442 345.375,168.275 320.5,194C 295.111,215.21 266.777,220.21 235.5,209C 208.573,197.064 192.406,176.564 187,147.5C 184.028,98.3833 206.194,67.7166 253.5,55.5 Z M 255.5,72.5 C 250.921,73.8583 246.254,75.3583 241.5,77C 207.662,95.1628 196.495,122.663 208,159.5C 226.163,193.338 253.663,204.505 290.5,193C 318.786,178.935 331.286,156.101 328,124.5C 317.968,87.6536 293.801,70.3203 255.5,72.5 Z"/></g>
<g><path style="opacity:0.913" fill="#ffffff" d="M 302.5,101.5 C 311.369,101.851 314.536,106.184 312,114.5C 293.133,132.369 273.966,149.869 254.5,167C 250.666,169.037 246.999,168.704 243.5,166C 236,158.5 228.5,151 221,143.5C 217.007,135.791 219.174,130.791 227.5,128.5C 229.61,129.054 231.61,129.888 233.5,131C 238.833,136.333 244.167,141.667 249.5,147C 250.167,147.667 250.833,147.667 251.5,147C 268.122,131.2 285.122,116.033 302.5,101.5 Z"/></g>
<g><path style="opacity:0.937" fill="#ffffff" d="M 58.5,176.5 C 78.3999,174.885 90.5665,183.885 95,203.5C 96.419,213.447 97.2524,223.447 97.5,233.5C 96.4577,256.827 96.2911,280.16 97,303.5C 106.846,293.959 118.012,292.126 130.5,298C 147.551,315.385 165.551,331.718 184.5,347C 194.076,355.317 199.576,365.817 201,378.5C 201.5,401.164 201.667,423.831 201.5,446.5C 213.369,444.181 221.536,448.515 226,459.5C 226.667,469.833 226.667,480.167 226,490.5C 223.166,498.169 217.666,502.336 209.5,503C 171.167,503.667 132.833,503.667 94.5,503C 88.2689,501.037 84.4356,496.87 83,490.5C 82.3333,480.167 82.3333,469.833 83,459.5C 88.2176,448.978 96.7176,444.978 108.5,447.5C 108.837,443.692 108.337,440.026 107,436.5C 85.973,415.473 64.973,394.473 44,373.5C 38.7617,366.687 35.4283,359.021 34,350.5C 34.149,299.135 35.4823,247.802 38,196.5C 41.5017,186.347 48.3351,179.681 58.5,176.5 Z M 61.5,193.5 C 66.4466,192.628 70.6132,193.961 74,197.5C 76.6601,201.814 78.3268,206.481 79,211.5C 79.8468,218.977 80.3468,226.477 80.5,234C 79.4634,257.494 79.2967,280.994 80,304.5C 80.5106,310.033 81.844,315.367 84,320.5C 87.5519,327.382 91.8852,333.716 97,339.5C 108.229,351.398 120.063,362.565 132.5,373C 142.557,372.53 145.391,367.696 141,358.5C 129.667,348.5 119,337.833 109,326.5C 105.616,318.267 108.283,313.267 117,311.5C 119.321,311.909 121.487,312.743 123.5,314C 130.135,321.636 137.135,328.97 144.5,336C 156.47,345.579 167.97,355.746 179,366.5C 181.66,370.814 183.327,375.481 184,380.5C 184.5,402.497 184.667,424.497 184.5,446.5C 164.833,446.5 145.167,446.5 125.5,446.5C 125.904,440.71 125.404,435.044 124,429.5C 102,407.5 80,385.5 58,363.5C 51.1217,353.61 48.6217,342.61 50.5,330.5C 51.6762,289.167 52.8428,247.834 54,206.5C 53.9446,200.602 56.4446,196.268 61.5,193.5 Z M 116.5,463.5 C 147.5,463.5 178.5,463.5 209.5,463.5C 209.814,471.087 209.481,478.587 208.5,486C 172.971,486.176 137.471,486.676 102,487.5C 101.228,487.355 100.561,487.022 100,486.5C 99.5003,479.174 99.3337,471.841 99.5,464.5C 105.358,464.822 111.025,464.489 116.5,463.5 Z"/></g>
<g><path style="opacity:0.938" fill="#ffffff" d="M 437.5,176.5 C 454.558,174.271 466.392,180.938 473,196.5C 475.518,247.802 476.851,299.135 477,350.5C 475.572,359.021 472.238,366.687 467,373.5C 445.667,394.833 424.333,416.167 403,437.5C 402.502,440.817 402.335,444.15 402.5,447.5C 413.27,444.981 421.437,448.315 427,457.5C 428.597,468.427 428.931,479.427 428,490.5C 426.564,496.87 422.731,501.037 416.5,503C 378.167,503.667 339.833,503.667 301.5,503C 293.334,502.336 287.834,498.169 285,490.5C 284.333,480.167 284.333,469.833 285,459.5C 289.464,448.515 297.631,444.181 309.5,446.5C 309.333,423.831 309.5,401.164 310,378.5C 311.424,365.817 316.924,355.317 326.5,347C 345.449,331.718 363.449,315.385 380.5,298C 392.988,292.126 404.154,293.959 414,303.5C 414.709,280.16 414.542,256.827 413.5,233.5C 413.748,223.447 414.581,213.447 416,203.5C 418.693,190.67 425.859,181.67 437.5,176.5 Z M 441.5,193.5 C 451.079,192.58 456.246,196.913 457,206.5C 458.667,253.826 459.667,301.16 460,348.5C 458.476,353.882 456.142,358.882 453,363.5C 431,385.5 409,407.5 387,429.5C 385.596,435.044 385.096,440.71 385.5,446.5C 365.833,446.5 346.167,446.5 326.5,446.5C 326.333,424.497 326.5,402.497 327,380.5C 327.673,375.481 329.34,370.814 332,366.5C 343.03,355.746 354.53,345.579 366.5,336C 373.865,328.97 380.865,321.636 387.5,314C 392.734,310.445 397.567,310.945 402,315.5C 404,319.167 404,322.833 402,326.5C 392,337.833 381.333,348.5 370,358.5C 365.609,367.696 368.443,372.53 378.5,373C 390.937,362.565 402.771,351.398 414,339.5C 419.075,333.687 423.408,327.354 427,320.5C 428.961,315.323 430.294,309.99 431,304.5C 431.703,280.994 431.537,257.494 430.5,234C 430.653,226.477 431.153,218.977 432,211.5C 432.849,204.128 436.016,198.128 441.5,193.5 Z M 301.5,463.5 C 338.175,463.289 374.841,463.622 411.5,464.5C 411.666,471.841 411.5,479.174 411,486.5C 410.586,486.957 410.086,487.291 409.5,487.5C 373.875,486.673 338.208,486.173 302.5,486C 301.519,478.587 301.186,471.087 301.5,463.5 Z"/></g>
<g><path style="opacity:0.827" fill="#ffffff" d="M 194.5,467.5 C 200.656,467.487 203.49,470.487 203,476.5C 200.975,481.145 197.475,482.645 192.5,481C 189.651,478.441 188.817,475.274 190,471.5C 191.25,469.807 192.75,468.473 194.5,467.5 Z"/></g>
<g><path style="opacity:0.827" fill="#ffffff" d="M 312.5,467.5 C 320.032,467.532 322.865,471.199 321,478.5C 318.441,481.349 315.274,482.183 311.5,481C 306.028,476.059 306.361,471.559 312.5,467.5 Z"/></g>
</svg>
