<?xml version="1.0" encoding="UTF-8"?>
<!DOCTYPE svg PUBLIC "-//W3C//DTD SVG 1.1//EN" "http://www.w3.org/Graphics/SVG/1.1/DTD/svg11.dtd">
<svg xmlns="http://www.w3.org/2000/svg" version="1.1" width="512px" height="512px" style="shape-rendering:geometricPrecision; text-rendering:geometricPrecision; image-rendering:optimizeQuality; fill-rule:evenodd; clip-rule:evenodd" xmlns:xlink="http://www.w3.org/1999/xlink">
<g><path style="opacity:0.947" fill="#ffffff" d="M 250.5,15.5 C 255.765,14.5706 260.265,15.9039 264,19.5C 270.772,32.7108 277.272,46.0441 283.5,59.5C 298.783,62.2312 314.116,64.7312 329.5,67C 335.386,70.8056 336.886,75.9723 334,82.5C 323.333,93.1667 312.667,103.833 302,114.5C 303.993,128.965 306.16,143.465 308.5,158C 309.191,163.622 306.858,167.289 301.5,169C 298.406,169.652 295.406,169.318 292.5,168C 280.063,161.365 267.563,154.865 255,148.5C 241.77,155.198 228.604,162.032 215.5,169C 209.182,170.424 204.682,168.257 202,162.5C 203.675,146.121 205.675,129.788 208,113.5C 197.029,103.53 186.363,93.1968 176,82.5C 173.282,75.6507 175.115,70.4841 181.5,67C 196.532,64.6385 211.532,62.1385 226.5,59.5C 233.333,45.8333 240.167,32.1667 247,18.5C 248.145,17.3636 249.312,16.3636 250.5,15.5 Z M 254.5,49.5 C 259.226,57.9482 263.726,66.6149 268,75.5C 269.167,76.6667 270.333,77.8333 271.5,79C 281.476,80.9406 291.476,82.7739 301.5,84.5C 295.817,91.0171 289.65,97.0171 283,102.5C 281.561,104.275 280.561,106.275 280,108.5C 281.015,118.913 282.348,129.246 284,139.5C 274.664,134.415 265.164,129.748 255.5,125.5C 245.57,129.215 236.07,133.882 227,139.5C 227.614,130.14 228.78,120.807 230.5,111.5C 230.406,109.077 229.906,106.744 229,104.5C 222.292,97.6246 215.459,90.9579 208.5,84.5C 219.316,82.9327 229.982,80.766 240.5,78C 246.106,68.9549 250.773,59.4549 254.5,49.5 Z"/></g>
<g><path style="opacity:0.949" fill="#ffffff" d="M 80.5,105.5 C 83.5184,105.335 86.5184,105.502 89.5,106C 90.9308,106.465 92.0975,107.299 93,108.5C 97.7056,118.078 102.539,127.578 107.5,137C 117.868,138.481 128.202,140.148 138.5,142C 145.227,146.077 146.727,151.577 143,158.5C 136.303,165.532 129.303,172.198 122,178.5C 122.669,188.69 123.836,198.857 125.5,209C 125.324,218.164 120.657,221.83 111.5,220C 102.573,215.62 93.7397,211.12 85,206.5C 75.7409,210.88 66.5742,215.38 57.5,220C 50.9252,221.962 46.4252,219.795 44,213.5C 44.5699,202.574 46.0699,191.741 48.5,181C 41.3771,172.876 33.8771,165.042 26,157.5C 23.1125,151.013 24.6125,145.847 30.5,142C 41.2179,140.398 51.8845,138.564 62.5,136.5C 67,127.5 71.5,118.5 76,109.5C 77.3968,107.93 78.8968,106.596 80.5,105.5 Z M 84.5,139.5 C 86.8282,144.981 89.8282,150.147 93.5,155C 99.2877,157.188 105.288,158.521 111.5,159C 107.298,162.867 103.465,167.033 100,171.5C 99.3424,177.425 99.8424,183.258 101.5,189C 101.167,189.5 100.833,190 100.5,190.5C 95.6447,187.072 90.3114,184.739 84.5,183.5C 79.0422,185.145 73.8755,187.478 69,190.5C 68.9453,185.814 69.4453,181.147 70.5,176.5C 70.3078,174.423 69.8078,172.423 69,170.5C 65.1667,166.667 61.3333,162.833 57.5,159C 63.243,158.37 68.9097,157.37 74.5,156C 79.2229,151.396 82.5562,145.896 84.5,139.5 Z"/></g>
<g><path style="opacity:0.949" fill="#ffffff" d="M 420.5,105.5 C 423.518,105.335 426.518,105.502 429.5,106C 430.931,106.465 432.097,107.299 433,108.5C 437.706,118.078 442.539,127.578 447.5,137C 457.868,138.481 468.202,140.148 478.5,142C 485.227,146.077 486.727,151.577 483,158.5C 476.303,165.532 469.303,172.198 462,178.5C 462.669,188.69 463.836,198.857 465.5,209C 465.324,218.164 460.657,221.83 451.5,220C 442.573,215.62 433.74,211.12 425,206.5C 415.741,210.88 406.574,215.38 397.5,220C 390.925,221.962 386.425,219.795 384,213.5C 384.57,202.574 386.07,191.741 388.5,181C 381.377,172.876 373.877,165.042 366,157.5C 363.112,151.013 364.612,145.847 370.5,142C 381.218,140.398 391.885,138.564 402.5,136.5C 407,127.5 411.5,118.5 416,109.5C 417.397,107.93 418.897,106.596 420.5,105.5 Z M 424.5,139.5 C 426.828,144.981 429.828,150.147 433.5,155C 439.288,157.188 445.288,158.521 451.5,159C 447.298,162.867 443.465,167.033 440,171.5C 439.342,177.425 439.842,183.258 441.5,189C 441.167,189.5 440.833,190 440.5,190.5C 435.645,187.072 430.311,184.739 424.5,183.5C 419.042,185.145 413.876,187.478 409,190.5C 408.945,185.814 409.445,181.147 410.5,176.5C 410.308,174.423 409.808,172.423 409,170.5C 405.167,166.667 401.333,162.833 397.5,159C 403.243,158.37 408.91,157.37 414.5,156C 419.223,151.396 422.556,145.896 424.5,139.5 Z"/></g>
<g><path style="opacity:0.957" fill="#ffffff" d="M 511.5,453.5 C 511.5,465.833 511.5,478.167 511.5,490.5C 510.028,492.134 508.362,493.634 506.5,495C 339.167,495.667 171.833,495.667 4.5,495C 2.63834,493.634 0.971672,492.134 -0.5,490.5C -0.5,478.167 -0.5,465.833 -0.5,453.5C 9.58604,409.585 36.9194,383.419 81.5,375C 45.6792,365.158 29.5126,341.658 33,304.5C 42.8421,268.679 66.3421,252.513 103.5,256C 139.321,265.842 155.487,289.342 152,326.5C 145.833,352.667 129.667,368.833 103.5,375C 124.925,378.215 143.592,387.048 159.5,401.5C 181.477,375.34 209.477,359.84 243.5,355C 214.015,350.005 193.182,333.838 181,306.5C 167.422,264.567 178.589,231.067 214.5,206C 237.749,193.975 261.749,192.308 286.5,201C 324.679,220.189 340.512,251.022 334,293.5C 327.237,319.932 311.404,338.765 286.5,350C 280.37,352.449 274.037,354.116 267.5,355C 301.53,359.843 329.53,375.343 351.5,401.5C 367.408,387.048 386.075,378.215 407.5,375C 371.679,365.158 355.513,341.658 359,304.5C 368.842,268.679 392.342,252.513 429.5,256C 465.321,265.842 481.487,289.342 478,326.5C 471.833,352.667 455.667,368.833 429.5,375C 474.081,383.419 501.414,409.585 511.5,453.5 Z M 245.5,216.5 C 274.93,213.802 296.43,225.469 310,251.5C 321.24,286.13 311.073,312.296 279.5,330C 244.87,341.24 218.704,331.073 201,299.5C 189.76,264.87 199.927,238.704 231.5,221C 236.254,219.358 240.921,217.858 245.5,216.5 Z M 84.5,276.5 C 108.365,274.503 123.865,284.837 131,307.5C 133.481,331.385 123.315,346.885 100.5,354C 76.6147,356.481 61.1147,346.315 54,323.5C 51.6382,299.529 61.8049,283.862 84.5,276.5 Z M 410.5,276.5 C 434.365,274.503 449.865,284.837 457,307.5C 459.481,331.385 449.315,346.885 426.5,354C 402.615,356.481 387.115,346.315 380,323.5C 377.638,299.529 387.805,283.862 410.5,276.5 Z M 242.5,376.5 C 290.717,373.614 325.55,393.614 347,436.5C 352.512,448.917 355.012,461.917 354.5,475.5C 288.5,475.5 222.5,475.5 156.5,475.5C 160.32,420.834 188.986,387.834 242.5,376.5 Z M 81.5,396.5 C 107.132,393.764 128.965,401.431 147,419.5C 147.667,420.833 147.667,422.167 147,423.5C 139.018,439.91 135.185,457.243 135.5,475.5C 96.8333,475.5 58.1667,475.5 19.5,475.5C 19.8682,433.045 40.5349,406.712 81.5,396.5 Z M 407.5,396.5 C 442.673,393.664 468.506,407.664 485,438.5C 489.761,450.353 491.928,462.687 491.5,475.5C 452.833,475.5 414.167,475.5 375.5,475.5C 375.815,457.243 371.982,439.91 364,423.5C 363.333,422.167 363.333,420.833 364,419.5C 375.972,406.932 390.472,399.265 407.5,396.5 Z"/></g>
<g><path style="opacity:0.891" fill="#ffffff" d="M 250.5,395.5 C 262.324,393.824 267.158,398.824 265,410.5C 261.345,415.275 256.512,416.775 250.5,415C 245.725,411.345 244.225,406.512 246,400.5C 247.366,398.638 248.866,396.972 250.5,395.5 Z"/></g>
<g><path style="opacity:0.928" fill="#ffffff" d="M 290.5,406.5 C 293.607,406.351 296.607,406.851 299.5,408C 313.589,417.082 323.589,429.416 329.5,445C 327.591,454.886 321.924,457.886 312.5,454C 308.629,449.093 305.129,443.926 302,438.5C 296.635,432.801 290.969,427.467 285,422.5C 282.011,415.483 283.844,410.15 290.5,406.5 Z"/></g>
</svg>
