<?xml version="1.0" encoding="UTF-8"?>
<!DOCTYPE svg PUBLIC "-//W3C//DTD SVG 1.1//EN" "http://www.w3.org/Graphics/SVG/1.1/DTD/svg11.dtd">
<svg xmlns="http://www.w3.org/2000/svg" version="1.1" width="512px" height="512px" style="shape-rendering:geometricPrecision; text-rendering:geometricPrecision; image-rendering:optimizeQuality; fill-rule:evenodd; clip-rule:evenodd" xmlns:xlink="http://www.w3.org/1999/xlink">
<g><path style="opacity:0.912" fill="#ffffff" d="M 246.5,9.5 C 274.313,7.15323 288.147,19.8199 288,47.5C 285.039,62.2938 276.206,71.2938 261.5,74.5C 260.501,89.8189 260.167,105.152 260.5,120.5C 293.121,121.756 321.621,133.09 346,154.5C 356.833,143.667 367.667,132.833 378.5,122C 370.105,105.311 372.771,90.6446 386.5,78C 399.833,69.3333 413.167,69.3333 426.5,78C 441.059,91.7492 443.225,107.249 433,124.5C 419.806,138.74 404.806,141.074 388,131.5C 377.167,142.333 366.333,153.167 355.5,164C 377.408,188.203 389.074,216.703 390.5,249.5C 405.837,249.667 421.17,249.5 436.5,249C 441.155,232.737 451.988,223.904 469,222.5C 489.471,224.137 500.304,235.137 501.5,255.5C 500.304,275.863 489.471,286.863 469,288.5C 452.55,287.04 441.717,278.54 436.5,263C 421.17,262.5 405.837,262.333 390.5,262.5C 389.109,294.603 377.776,322.603 356.5,346.5C 366.833,357.5 377.5,368.167 388.5,378.5C 407.084,369.514 422.584,373.181 435,389.5C 443.339,407.822 439.505,422.989 423.5,435C 405.178,443.339 390.011,439.505 378,423.5C 374.351,416.588 373.018,409.254 374,401.5C 375.369,396.74 376.702,392.073 378,387.5C 367.653,376.986 357.153,366.652 346.5,356.5C 322.841,377.321 295.174,388.821 263.5,391C 262.184,398.432 261.518,406.098 261.5,414C 261.667,421.5 261.833,429 262,436.5C 278.263,441.155 287.096,451.988 288.5,469C 286.863,489.471 275.863,500.304 255.5,501.5C 235.137,500.304 224.137,489.471 222.5,469C 223.904,451.988 232.737,441.155 249,436.5C 249.167,429 249.333,421.5 249.5,414C 249.482,406.098 248.816,398.432 247.5,391C 215.907,388.944 188.407,377.444 165,356.5C 154.167,367.333 143.333,378.167 132.5,389C 140.895,405.689 138.229,420.355 124.5,433C 112.571,440.759 100.237,441.425 87.5,435C 71.4948,422.989 67.6615,407.822 76,389.5C 85.427,375.8 98.2604,370.967 114.5,375C 117.656,375.937 120.489,377.437 123,379.5C 133.833,368.667 144.667,357.833 155.5,347C 133.816,323.454 122.15,295.621 120.5,263.5C 104.833,263.5 89.1667,263.5 73.5,263.5C 70.2332,277.264 61.5665,285.43 47.5,288C 20.1312,288.297 7.63116,274.797 10,247.5C 14.811,231.752 25.4777,223.419 42,222.5C 59.857,223.825 70.6903,233.158 74.5,250.5C 89.8333,250.5 105.167,250.5 120.5,250.5C 121.731,217.886 133.065,189.386 154.5,165C 143.667,154.167 132.833,143.333 122,132.5C 105.311,140.895 90.6446,138.229 78,124.5C 69.3366,111.185 69.3366,97.8514 78,84.5C 91.7492,69.9412 107.249,67.7745 124.5,78C 138.74,91.1937 141.074,106.194 131.5,123C 142.333,133.833 153.167,144.667 164,155.5C 187.751,134.382 215.585,122.715 247.5,120.5C 247.5,104.833 247.5,89.1667 247.5,73.5C 236.584,71.2818 229.084,64.9485 225,54.5C 219.317,33.2031 226.484,18.2031 246.5,9.5 Z M 249.5,22.5 C 270.153,21.9742 277.986,31.6408 273,51.5C 265.95,61.5138 256.784,64.0138 245.5,59C 233.039,48.7585 232.373,37.7585 243.5,26C 245.727,25.059 247.727,23.8923 249.5,22.5 Z M 100.5,84.5 C 112.976,83.8162 120.81,89.4829 124,101.5C 124.798,113.046 119.631,120.546 108.5,124C 96.482,125.238 88.6487,120.071 85,108.5C 83.9198,96.4218 89.0865,88.4218 100.5,84.5 Z M 402.5,84.5 C 416.27,84.2721 424.27,90.9388 426.5,104.5C 424.776,116.391 417.942,123.057 406,124.5C 394.602,122.602 388.102,115.936 386.5,104.5C 387.805,94.5361 393.138,87.8695 402.5,84.5 Z M 241.5,133.5 C 300.936,130.829 343.436,156.162 369,209.5C 387.889,264.778 375.723,311.945 332.5,351C 293.735,380.079 251.735,385.745 206.5,368C 160.106,345.256 135.439,307.923 132.5,256C 135.479,200.999 162.146,162.666 212.5,141C 222.095,137.686 231.762,135.186 241.5,133.5 Z M 248.5,175.5 C 249.826,190.339 249.826,205.339 248.5,220.5C 238.772,219.258 229.438,216.591 220.5,212.5C 219.417,211.635 219.251,210.635 220,209.5C 226.474,195.535 235.974,184.201 248.5,175.5 Z M 261.5,175.5 C 274.682,183.854 284.516,195.187 291,209.5C 291.749,210.635 291.583,211.635 290.5,212.5C 281.611,216.722 272.278,219.389 262.5,220.5C 261.501,205.515 261.167,190.515 261.5,175.5 Z M 224.5,178.5 C 217.934,186.62 212.1,195.287 207,204.5C 204,202.167 201,199.833 198,197.5C 197.333,196.833 197.333,196.167 198,195.5C 205.617,187.941 214.45,182.275 224.5,178.5 Z M 286.5,178.5 C 296.55,182.275 305.383,187.941 313,195.5C 313.667,196.167 313.667,196.833 313,197.5C 310.407,199.549 307.907,201.715 305.5,204C 304.833,204.667 304.167,204.667 303.5,204C 298.691,194.869 293.025,186.369 286.5,178.5 Z M 187.5,206.5 C 192.007,210.168 196.673,213.668 201.5,217C 202.059,217.725 202.392,218.558 202.5,219.5C 199.752,229.322 198.085,239.322 197.5,249.5C 189.167,249.5 180.833,249.5 172.5,249.5C 173.734,233.796 178.734,219.463 187.5,206.5 Z M 322.5,206.5 C 332.153,219.116 337.487,233.449 338.5,249.5C 330.167,249.5 321.833,249.5 313.5,249.5C 312.764,239.344 311.097,229.344 308.5,219.5C 308.608,218.558 308.941,217.725 309.5,217C 314.311,214.015 318.644,210.515 322.5,206.5 Z M 214.5,224.5 C 225.62,229.53 237.287,232.53 249.5,233.5C 249.5,238.833 249.5,244.167 249.5,249.5C 236.5,249.5 223.5,249.5 210.5,249.5C 211.292,241.078 212.626,232.745 214.5,224.5 Z M 295.5,224.5 C 298.334,232.478 300,240.811 300.5,249.5C 287.5,249.5 274.5,249.5 261.5,249.5C 261.5,244.167 261.5,238.833 261.5,233.5C 273.514,232.665 284.847,229.665 295.5,224.5 Z M 38.5,235.5 C 56.5083,236.519 63.675,245.852 60,263.5C 52.2814,275.849 42.1148,278.349 29.5,271C 21.6019,262.745 20.4352,253.579 26,243.5C 29.5859,239.714 33.7526,237.047 38.5,235.5 Z M 465.5,235.5 C 482.47,235.971 489.97,244.637 488,261.5C 482.163,274.333 472.663,278.167 459.5,273C 448.469,264.556 446.635,254.389 454,242.5C 457.257,239.048 461.09,236.715 465.5,235.5 Z M 172.5,261.5 C 180.833,261.5 189.167,261.5 197.5,261.5C 198.085,271.678 199.752,281.678 202.5,291.5C 202.392,292.442 202.059,293.275 201.5,294C 196.714,297.118 192.214,300.618 188,304.5C 178.771,291.647 173.604,277.313 172.5,261.5 Z M 210.5,261.5 C 223.5,261.5 236.5,261.5 249.5,261.5C 249.5,266.833 249.5,272.167 249.5,277.5C 237.435,278.391 225.935,281.391 215,286.5C 212.636,278.316 211.136,269.983 210.5,261.5 Z M 261.5,261.5 C 274.5,261.5 287.5,261.5 300.5,261.5C 299.864,269.983 298.364,278.316 296,286.5C 285.065,281.391 273.565,278.391 261.5,277.5C 261.5,272.167 261.5,266.833 261.5,261.5 Z M 313.5,261.5 C 321.833,261.5 330.167,261.5 338.5,261.5C 337.396,277.313 332.229,291.647 323,304.5C 318.786,300.618 314.286,297.118 309.5,294C 308.941,293.275 308.608,292.442 308.5,291.5C 311.097,281.656 312.764,271.656 313.5,261.5 Z M 247.5,290.5 C 248.831,297.636 249.497,305.136 249.5,313C 249.333,320.5 249.167,328 249,335.5C 235.533,326.698 225.699,314.865 219.5,300C 220.444,298.523 221.777,297.523 223.5,297C 231.381,293.866 239.381,291.7 247.5,290.5 Z M 261.5,290.5 C 267.542,291.342 273.542,292.508 279.5,294C 284.086,294.96 288.086,296.96 291.5,300C 285.301,314.865 275.467,326.698 262,335.5C 261.5,320.504 261.333,305.504 261.5,290.5 Z M 224.5,332.5 C 214.45,328.725 205.617,323.059 198,315.5C 197.333,314.833 197.333,314.167 198,313.5C 201,311.167 204,308.833 207,306.5C 212.1,315.713 217.934,324.38 224.5,332.5 Z M 286.5,332.5 C 293.025,324.631 298.691,316.131 303.5,307C 304.167,306.333 304.833,306.333 305.5,307C 307.907,309.285 310.407,311.451 313,313.5C 313.667,314.167 313.667,314.833 313,315.5C 305.383,323.059 296.55,328.725 286.5,332.5 Z M 101.5,386.5 C 116.309,387.142 123.809,394.808 124,409.5C 118.701,425.067 108.534,429.567 93.5,423C 81.5095,412.047 81.5095,401.047 93.5,390C 96.1579,388.522 98.8245,387.355 101.5,386.5 Z M 402.5,386.5 C 414.502,385.749 422.336,391.082 426,402.5C 427.238,414.518 422.071,422.351 410.5,426C 398.003,427.173 390.17,421.673 387,409.5C 386.399,397.936 391.565,390.27 402.5,386.5 Z M 250.5,449.5 C 269.282,449.109 277.115,458.109 274,476.5C 266.433,489.168 256.266,492.001 243.5,485C 234.47,476.46 233.304,466.96 240,456.5C 243.154,453.488 246.654,451.155 250.5,449.5 Z"/></g>
<g><path style="opacity:0.937" fill="#ffffff" d="M 241.5,159.5 C 291,155.898 325.834,176.565 346,221.5C 360.531,270.916 346.698,310.083 304.5,339C 282.177,351.387 258.51,354.887 233.5,349.5C 192.495,337.995 167.995,311.328 160,269.5C 155.912,219.975 176.412,185.142 221.5,165C 228.208,162.826 234.875,160.993 241.5,159.5 Z M 248.5,175.5 C 235.974,184.201 226.474,195.535 220,209.5C 219.251,210.635 219.417,211.635 220.5,212.5C 229.438,216.591 238.772,219.258 248.5,220.5C 249.826,205.339 249.826,190.339 248.5,175.5 Z M 261.5,175.5 C 261.167,190.515 261.501,205.515 262.5,220.5C 272.278,219.389 281.611,216.722 290.5,212.5C 291.583,211.635 291.749,210.635 291,209.5C 284.516,195.187 274.682,183.854 261.5,175.5 Z M 224.5,178.5 C 214.45,182.275 205.617,187.941 198,195.5C 197.333,196.167 197.333,196.833 198,197.5C 201,199.833 204,202.167 207,204.5C 212.1,195.287 217.934,186.62 224.5,178.5 Z M 286.5,178.5 C 293.025,186.369 298.691,194.869 303.5,204C 304.167,204.667 304.833,204.667 305.5,204C 307.907,201.715 310.407,199.549 313,197.5C 313.667,196.833 313.667,196.167 313,195.5C 305.383,187.941 296.55,182.275 286.5,178.5 Z M 187.5,206.5 C 178.734,219.463 173.734,233.796 172.5,249.5C 180.833,249.5 189.167,249.5 197.5,249.5C 198.085,239.322 199.752,229.322 202.5,219.5C 202.392,218.558 202.059,217.725 201.5,217C 196.673,213.668 192.007,210.168 187.5,206.5 Z M 322.5,206.5 C 318.644,210.515 314.311,214.015 309.5,217C 308.941,217.725 308.608,218.558 308.5,219.5C 311.097,229.344 312.764,239.344 313.5,249.5C 321.833,249.5 330.167,249.5 338.5,249.5C 337.487,233.449 332.153,219.116 322.5,206.5 Z M 214.5,224.5 C 212.626,232.745 211.292,241.078 210.5,249.5C 223.5,249.5 236.5,249.5 249.5,249.5C 249.5,244.167 249.5,238.833 249.5,233.5C 237.287,232.53 225.62,229.53 214.5,224.5 Z M 295.5,224.5 C 284.847,229.665 273.514,232.665 261.5,233.5C 261.5,238.833 261.5,244.167 261.5,249.5C 274.5,249.5 287.5,249.5 300.5,249.5C 300,240.811 298.334,232.478 295.5,224.5 Z M 172.5,261.5 C 173.604,277.313 178.771,291.647 188,304.5C 192.214,300.618 196.714,297.118 201.5,294C 202.059,293.275 202.392,292.442 202.5,291.5C 199.752,281.678 198.085,271.678 197.5,261.5C 189.167,261.5 180.833,261.5 172.5,261.5 Z M 210.5,261.5 C 211.136,269.983 212.636,278.316 215,286.5C 225.935,281.391 237.435,278.391 249.5,277.5C 249.5,272.167 249.5,266.833 249.5,261.5C 236.5,261.5 223.5,261.5 210.5,261.5 Z M 261.5,261.5 C 261.5,266.833 261.5,272.167 261.5,277.5C 273.565,278.391 285.065,281.391 296,286.5C 298.364,278.316 299.864,269.983 300.5,261.5C 287.5,261.5 274.5,261.5 261.5,261.5 Z M 313.5,261.5 C 312.764,271.656 311.097,281.656 308.5,291.5C 308.608,292.442 308.941,293.275 309.5,294C 314.286,297.118 318.786,300.618 323,304.5C 332.229,291.647 337.396,277.313 338.5,261.5C 330.167,261.5 321.833,261.5 313.5,261.5 Z M 247.5,290.5 C 239.381,291.7 231.381,293.866 223.5,297C 221.777,297.523 220.444,298.523 219.5,300C 225.699,314.865 235.533,326.698 249,335.5C 249.167,328 249.333,320.5 249.5,313C 249.497,305.136 248.831,297.636 247.5,290.5 Z M 261.5,290.5 C 261.333,305.504 261.5,320.504 262,335.5C 275.467,326.698 285.301,314.865 291.5,300C 288.086,296.96 284.086,294.96 279.5,294C 273.542,292.508 267.542,291.342 261.5,290.5 Z M 224.5,332.5 C 217.934,324.38 212.1,315.713 207,306.5C 204,308.833 201,311.167 198,313.5C 197.333,314.167 197.333,314.833 198,315.5C 205.617,323.059 214.45,328.725 224.5,332.5 Z M 286.5,332.5 C 296.55,328.725 305.383,323.059 313,315.5C 313.667,314.833 313.667,314.167 313,313.5C 310.407,311.451 307.907,309.285 305.5,307C 304.833,306.333 304.167,306.333 303.5,307C 298.691,316.131 293.025,324.631 286.5,332.5 Z"/></g>
</svg>
