<?xml version="1.0" encoding="UTF-8"?>
<!DOCTYPE svg PUBLIC "-//W3C//DTD SVG 1.1//EN" "http://www.w3.org/Graphics/SVG/1.1/DTD/svg11.dtd">
<svg xmlns="http://www.w3.org/2000/svg" version="1.1" width="512px" height="512px" style="shape-rendering:geometricPrecision; text-rendering:geometricPrecision; image-rendering:optimizeQuality; fill-rule:evenodd; clip-rule:evenodd" xmlns:xlink="http://www.w3.org/1999/xlink">
<g><path style="opacity:0.945" fill="#ffffff" d="M 40.5,-0.5 C 120.833,-0.5 201.167,-0.5 281.5,-0.5C 317.793,32.9582 353.626,66.9582 389,101.5C 389.667,225.167 389.667,348.833 389,472.5C 385.022,490.477 374.189,501.977 356.5,507C 304.024,508.149 251.524,508.649 199,508.5C 146.145,508.647 93.3118,508.147 40.5,507C 24.405,502.571 13.905,492.404 9,476.5C 7.34262,329.862 7.00928,183.196 8,36.5C 11.2393,17.4311 22.0727,5.09773 40.5,-0.5 Z M 44.5,17.5 C 119.167,17.5 193.833,17.5 268.5,17.5C 268.068,39.2061 268.568,60.8728 270,82.5C 275.461,99.6282 286.961,110.128 304.5,114C 326.831,114.5 349.164,114.667 371.5,114.5C 371.667,233.167 371.5,351.834 371,470.5C 367.243,482.595 359.076,489.095 346.5,490C 245.474,490.984 144.474,490.651 43.5,489C 33.6893,485.525 27.856,478.692 26,468.5C 25.3333,325.167 25.3333,181.833 26,38.5C 28.1413,27.8638 34.3079,20.8638 44.5,17.5 Z M 286.5,29.5 C 310.297,51.4617 333.964,73.6283 357.5,96C 340.5,96.6667 323.5,96.6667 306.5,96C 295.789,92.6238 289.289,85.4572 287,74.5C 286.5,59.5037 286.333,44.5037 286.5,29.5 Z M 81.5,124.5 C 103.5,124.5 125.5,124.5 147.5,124.5C 147.5,147.167 147.5,169.833 147.5,192.5C 125.5,192.5 103.5,192.5 81.5,192.5C 81.5,169.833 81.5,147.167 81.5,124.5 Z M 81.5,252.5 C 103.5,252.5 125.5,252.5 147.5,252.5C 147.5,275.167 147.5,297.833 147.5,320.5C 125.5,320.5 103.5,320.5 81.5,320.5C 81.5,297.833 81.5,275.167 81.5,252.5 Z M 81.5,380.5 C 103.5,380.5 125.5,380.5 147.5,380.5C 147.5,403.167 147.5,425.833 147.5,448.5C 125.5,448.5 103.5,448.5 81.5,448.5C 81.5,425.833 81.5,403.167 81.5,380.5 Z"/></g>
<g><path style="opacity:0.944" fill="#ffffff" d="M 466.5,511.5 C 462.167,511.5 457.833,511.5 453.5,511.5C 448.463,508.956 444.963,504.956 443,499.5C 434.667,476.5 426.333,453.5 418,430.5C 416.876,313.835 416.542,197.168 417,80.5C 421.598,57.5819 435.598,47.2485 459,49.5C 482.633,47.1348 496.967,57.4681 502,80.5C 502.179,194.174 502.679,307.841 503.5,421.5C 503.462,425.985 502.629,430.319 501,434.5C 492.667,457.167 484.333,479.833 476,502.5C 473.594,506.408 470.428,509.408 466.5,511.5 Z M 446.5,67.5 C 454.84,67.3336 463.173,67.5003 471.5,68C 478.517,70.3521 482.684,75.1854 484,82.5C 484.5,92.1609 484.666,101.828 484.5,111.5C 467.833,111.5 451.167,111.5 434.5,111.5C 434.094,100.436 434.594,89.4363 436,78.5C 438.357,73.6455 441.857,69.9788 446.5,67.5 Z M 434.5,129.5 C 451.167,129.5 467.833,129.5 484.5,129.5C 484.5,180.833 484.5,232.167 484.5,283.5C 477.825,283.334 471.158,283.5 464.5,284C 458.346,288.938 458.012,294.272 463.5,300C 470.411,301.384 477.411,301.884 484.5,301.5C 484.5,305.5 484.5,309.5 484.5,313.5C 477.825,313.334 471.158,313.5 464.5,314C 459.548,317.4 458.382,321.9 461,327.5C 461.903,328.701 463.069,329.535 464.5,330C 471.076,331.377 477.743,331.877 484.5,331.5C 484.5,335.167 484.5,338.833 484.5,342.5C 477.411,342.116 470.411,342.616 463.5,344C 458.012,349.728 458.346,355.062 464.5,360C 471.158,360.5 477.825,360.666 484.5,360.5C 484.5,375.833 484.5,391.167 484.5,406.5C 468.167,406.5 451.833,406.5 435.5,406.5C 435.451,314.165 435.117,221.832 434.5,129.5 Z M 435.5,424.5 C 451.847,424.167 468.18,424.501 484.5,425.5C 476.333,447.833 468.167,470.167 460,492.5C 451.728,469.848 443.561,447.181 435.5,424.5 Z"/></g>
<g><path style="opacity:0.948" fill="#ffffff" d="M 70.5,106.5 C 99.8352,106.333 129.169,106.5 158.5,107C 160.848,107.346 162.681,108.513 164,110.5C 165.651,142.081 165.985,173.748 165,205.5C 164.535,206.931 163.701,208.097 162.5,209C 131.252,210.651 99.919,210.985 68.5,210C 67.0692,209.535 65.9025,208.701 65,207.5C 63.3484,175.586 63.0151,143.586 64,111.5C 65.8049,109.174 67.9716,107.508 70.5,106.5 Z M 81.5,124.5 C 81.5,147.167 81.5,169.833 81.5,192.5C 103.5,192.5 125.5,192.5 147.5,192.5C 147.5,169.833 147.5,147.167 147.5,124.5C 125.5,124.5 103.5,124.5 81.5,124.5 Z"/></g>
<g><path style="opacity:0.942" fill="#ffffff" d="M 194.5,130.5 C 239.168,130.333 283.835,130.5 328.5,131C 332.238,132.399 333.904,135.066 333.5,139C 333.987,143.7 331.987,146.7 327.5,148C 283.5,148.667 239.5,148.667 195.5,148C 191.013,146.7 189.013,143.7 189.5,139C 189.308,135.035 190.975,132.201 194.5,130.5 Z"/></g>
<g><path style="opacity:0.913" fill="#ffffff" d="M 123.5,145.5 C 134.456,145.43 137.956,150.43 134,160.5C 127.833,166.667 121.667,172.833 115.5,179C 111.833,181 108.167,181 104.5,179C 101,175.5 97.5,172 94,168.5C 91.313,158.517 95.1463,154.017 105.5,155C 107.286,155.785 108.786,156.951 110,158.5C 114.395,153.936 118.895,149.602 123.5,145.5 Z"/></g>
<g><path style="opacity:0.94" fill="#ffffff" d="M 194.5,169.5 C 232.835,169.333 271.168,169.5 309.5,170C 313.084,171.664 314.751,174.497 314.5,178.5C 314.833,183.005 312.833,185.839 308.5,187C 270.833,187.667 233.167,187.667 195.5,187C 191.181,185.877 189.181,183.044 189.5,178.5C 189.377,174.405 191.044,171.405 194.5,169.5 Z"/></g>
<g><path style="opacity:0.948" fill="#ffffff" d="M 70.5,234.5 C 99.8352,234.333 129.169,234.5 158.5,235C 160.848,235.346 162.681,236.513 164,238.5C 165.651,270.081 165.985,301.748 165,333.5C 164.535,334.931 163.701,336.097 162.5,337C 131.252,338.651 99.919,338.985 68.5,338C 67.0692,337.535 65.9025,336.701 65,335.5C 63.3486,303.919 63.0153,272.252 64,240.5C 65.4361,237.558 67.6028,235.558 70.5,234.5 Z M 81.5,252.5 C 81.5,275.167 81.5,297.833 81.5,320.5C 103.5,320.5 125.5,320.5 147.5,320.5C 147.5,297.833 147.5,275.167 147.5,252.5C 125.5,252.5 103.5,252.5 81.5,252.5 Z"/></g>
<g><path style="opacity:0.941" fill="#ffffff" d="M 194.5,259.5 C 239.168,259.333 283.835,259.5 328.5,260C 332.084,261.664 333.751,264.497 333.5,268.5C 333.751,272.503 332.084,275.336 328.5,277C 283.833,277.667 239.167,277.667 194.5,277C 190.916,275.336 189.249,272.503 189.5,268.5C 189.377,264.405 191.044,261.405 194.5,259.5 Z"/></g>
<g><path style="opacity:0.916" fill="#ffffff" d="M 124.5,273.5 C 131.612,272.781 135.612,275.948 136.5,283C 135.671,284.816 134.837,286.649 134,288.5C 127.833,294.667 121.667,300.833 115.5,307C 112.298,308.483 108.964,308.817 105.5,308C 101.667,304.167 97.8333,300.333 94,296.5C 91.1393,288.897 93.6393,284.23 101.5,282.5C 104.953,282.592 107.786,283.925 110,286.5C 114.455,281.534 119.289,277.2 124.5,273.5 Z"/></g>
<g><path style="opacity:0.939" fill="#ffffff" d="M 194.5,298.5 C 232.835,298.333 271.168,298.5 309.5,299C 313.084,300.664 314.751,303.497 314.5,307.5C 314.751,311.503 313.084,314.336 309.5,316C 271.167,316.667 232.833,316.667 194.5,316C 190.916,314.336 189.249,311.503 189.5,307.5C 189.377,303.405 191.044,300.405 194.5,298.5 Z"/></g>
<g><path style="opacity:0.949" fill="#ffffff" d="M 68.5,362.5 C 99.1685,362.333 129.835,362.5 160.5,363C 161.931,363.465 163.097,364.299 164,365.5C 165.651,397.081 165.985,428.748 165,460.5C 164.215,462.286 163.049,463.786 161.5,465C 130.919,466.651 100.253,466.984 69.5,466C 67.0607,465.226 65.2273,463.726 64,461.5C 63.3333,430.167 63.3333,398.833 64,367.5C 65.025,365.313 66.525,363.646 68.5,362.5 Z M 81.5,380.5 C 81.5,403.167 81.5,425.833 81.5,448.5C 103.5,448.5 125.5,448.5 147.5,448.5C 147.5,425.833 147.5,403.167 147.5,380.5C 125.5,380.5 103.5,380.5 81.5,380.5 Z"/></g>
<g><path style="opacity:0.942" fill="#ffffff" d="M 195.5,388.5 C 239.501,388.333 283.501,388.5 327.5,389C 331.819,390.123 333.819,392.956 333.5,397.5C 333.751,401.503 332.084,404.336 328.5,406C 283.833,406.667 239.167,406.667 194.5,406C 190.916,404.336 189.249,401.503 189.5,397.5C 189.298,392.873 191.298,389.873 195.5,388.5 Z"/></g>
<g><path style="opacity:0.915" fill="#ffffff" d="M 122.5,401.5 C 132.849,400.343 137.016,404.676 135,414.5C 129.199,421.302 123.032,427.802 116.5,434C 112.167,437.333 107.833,437.333 103.5,434C 99.2477,430.419 95.7477,426.252 93,421.5C 92.958,412.418 97.458,408.918 106.5,411C 107.667,412.167 108.833,413.333 110,414.5C 114.37,410.298 118.537,405.964 122.5,401.5 Z"/></g>
<g><path style="opacity:0.94" fill="#ffffff" d="M 195.5,427.5 C 233.168,427.333 270.835,427.5 308.5,428C 312.833,429.161 314.833,431.995 314.5,436.5C 314.751,440.503 313.084,443.336 309.5,445C 271.167,445.667 232.833,445.667 194.5,445C 190.916,443.336 189.249,440.503 189.5,436.5C 189.298,431.873 191.298,428.873 195.5,427.5 Z"/></g>
</svg>
