<?xml version="1.0" encoding="UTF-8"?>
<!DOCTYPE svg PUBLIC "-//W3C//DTD SVG 1.1//EN" "http://www.w3.org/Graphics/SVG/1.1/DTD/svg11.dtd">
<svg xmlns="http://www.w3.org/2000/svg" version="1.1" width="225px" height="225px" style="shape-rendering:geometricPrecision; text-rendering:geometricPrecision; image-rendering:optimizeQuality; fill-rule:evenodd; clip-rule:evenodd" xmlns:xlink="http://www.w3.org/1999/xlink">
<g><path style="opacity:0.958" fill="#ffffff" d="M -0.5,142.5 C -0.5,107.833 -0.5,73.1667 -0.5,38.5C 4.53999,19.9631 16.54,8.79646 35.5,5C 83.1667,4.33333 130.833,4.33333 178.5,5C 196.455,8.9544 207.955,19.7877 213,37.5C 214.58,57.7998 214.913,78.1332 214,98.5C 210.286,106.625 204.452,108.792 196.5,105C 194.106,103.048 192.606,100.548 192,97.5C 191.667,78.8333 191.333,60.1667 191,41.5C 187.977,33.8085 182.477,28.9752 174.5,27C 152,26.8333 129.5,26.6667 107,26.5C 83.1189,26.353 59.2855,26.853 35.5,28C 28.5993,30.5683 24.0993,35.4017 22,42.5C 21.0215,75.5607 21.3548,108.561 23,141.5C 25.5,146.667 29.3333,150.5 34.5,153C 49.8471,153.983 65.1804,154.983 80.5,156C 92.3333,167.833 104.167,179.667 116,191.5C 119.64,203.734 115.14,209.234 102.5,208C 91.5293,198.03 80.8626,187.697 70.5,177C 58.5,176.667 46.5,176.333 34.5,176C 16.0883,171.753 4.42163,160.586 -0.5,142.5 Z"/></g>
<g><path style="opacity:0.924" fill="#ffffff" d="M 62.5,57.5 C 91.8352,57.3334 121.169,57.5 150.5,58C 160.277,61.0677 162.777,67.2344 158,76.5C 156.421,78.0412 154.587,79.2078 152.5,80C 122.167,80.6667 91.8333,80.6667 61.5,80C 53.6096,77.0073 51.1096,71.5073 54,63.5C 56.3218,60.6047 59.1552,58.6047 62.5,57.5 Z"/></g>
<g><path style="opacity:0.915" fill="#ffffff" d="M 61.5,100.5 C 80.8362,100.333 100.17,100.5 119.5,101C 129.297,105.411 130.964,111.911 124.5,120.5C 123.088,121.806 121.421,122.64 119.5,123C 100.167,123.667 80.8333,123.667 61.5,123C 53.5982,119.963 51.0982,114.463 54,106.5C 56.1337,103.847 58.6337,101.847 61.5,100.5 Z"/></g>
<g><path style="opacity:0.955" fill="#ffffff" d="M 224.5,203.5 C 224.5,206.5 224.5,209.5 224.5,212.5C 220.043,219.833 214.043,221.333 206.5,217C 201.956,212.12 197.122,207.62 192,203.5C 170.361,213.256 151.694,209.256 136,191.5C 122.497,169.024 125.331,148.858 144.5,131C 162.74,119.432 180.74,119.766 198.5,132C 214.988,147.93 218.322,166.263 208.5,187C 214.064,192.395 219.397,197.895 224.5,203.5 Z M 167.5,144.5 C 185.102,145.05 192.935,154.05 191,171.5C 184.85,185.152 174.683,189.318 160.5,184C 150.159,176.284 147.659,166.451 153,154.5C 156.64,149.348 161.474,146.014 167.5,144.5 Z"/></g>
</svg>
