<?xml version="1.0" encoding="UTF-8"?>
<svg id="Layer_2" data-name="Layer 2" xmlns="http://www.w3.org/2000/svg" viewBox="0 0 39.99 42.89" width="24px" height="24px">
  <defs>
    <style>
      .cls-1 {
        fill: #fff;
        stroke-width: 0px;
      }
    </style>
  </defs>
  <g id="Layer_1-2" data-name="Layer 1">
    <path class="cls-1" d="m36.12,19.06c-2.93,2.93-10.97,10.97-13.59,13.59l-1.67-1.67c.61-.61,12.41-12.41,13.59-13.59,1.1-1.1,2.77.56,1.67,1.66Zm-15.72,18.56l-3.05.6c-1.22.24-2.29-.84-2.05-2.05l.6-3.05c.09-.46.66-.63.99-.3l3.82,3.82c.33.33.16.9-.3.99Zm-13.28-9.53c-.97,0-1.75-.78-1.75-1.75s.78-1.75,1.75-1.75h7.37c.97,0,1.75.78,1.75,1.75s-.78,1.75-1.75,1.75h-7.37Zm0-9.51h15.2c.97,0,1.75.78,1.75,1.75s-.78,1.75-1.75,1.75H7.12c-.97,0-1.75-.78-1.75-1.75s.78-1.75,1.75-1.75Zm0-6.01h15.2c.97,0,1.75.78,1.75,1.75s-.78,1.75-1.75,1.75H7.12c-.97,0-1.75-.78-1.75-1.75s.78-1.75,1.75-1.75Zm0-6.01h19.86c.97,0,1.75.78,1.75,1.75s-.78,1.75-1.75,1.75H7.12c-.97,0-1.75-.78-1.75-1.75s.78-1.75,1.75-1.75Zm26.99,7.13V1.75c0-.97-.78-1.75-1.75-1.75H1.75C.78,0,0,.78,0,1.75v39.39c0,.97.78,1.75,1.75,1.75h30.61c.97,0,1.75-.78,1.75-1.75v-15.12l4.49-4.49h0c3.37-3.37.1-9.02-4.49-7.84Z"/>
  </g>
</svg>